<?xml version="1.0" encoding="utf-8" ?><svg xmlns="http://www.w3.org/2000/svg" xmlns:xlink="http://www.w3.org/1999/xlink" width="1024" height="1024" viewBox="0 0 1024 1024"><path transform="scale(2 2)" d="M93.9051 214.095C93.7046 210.473 93.1073 206.219 92.5142 202.633C88.2417 176.791 85.1139 150.714 80.983 124.863L78.2015 107.288C76.6489 97.8479 72.9128 86.7883 85.7448 83.5348C92.9961 82.9816 98.4068 88.5037 104.21 92.3814L163.281 132.444C169.126 136.391 177.387 141.649 182.812 146.122L183.484 145.734C188.245 142.946 197.511 140.978 202.993 139.782C240.625 131.566 280.496 131.38 317.508 142.692C320.787 143.694 324.946 145.356 328.217 146.043L328.609 146.122C355.875 127.575 382.032 108.144 410.363 90.8597C433.352 76.6877 437.813 84.6326 434.165 107.57L429.686 134.193C425.474 160.389 421.744 186.584 417.025 212.671C419.007 215.476 420.169 218.648 421.662 221.725C439.415 258.304 440.107 300.864 420.575 336.653C372.315 420.431 240.753 437.803 159.861 397.786C98.301 367.332 60.3639 306.243 83.3212 238.209C86.124 229.903 90.0172 221.939 93.9051 214.095ZM180.752 210.244C151.166 210.311 127.246 234.369 127.349 263.954C127.452 293.54 151.539 317.431 181.124 317.292C210.659 317.153 234.5 293.117 234.397 263.582C234.294 234.047 210.287 210.177 180.752 210.244ZM329.802 210.214C300.224 210.84 276.78 235.369 277.49 264.944C278.2 294.519 302.795 317.894 332.368 317.1C361.823 316.308 385.083 291.833 384.376 262.377C383.669 232.921 359.26 209.59 329.802 210.214ZM241.312 331.457C231.808 332.465 228.666 341.161 232.889 349.367C235.315 354.163 239.612 356.575 244.037 359.268C244.017 371.82 257.797 378.323 265.512 366.976C267.152 363.803 267.356 362.86 267.297 359.268C272.958 356.071 278.504 353.021 280.389 346.255C283.896 333.286 274.509 331.249 263.881 331.437C256.385 331.569 248.8 331.299 241.312 331.457Z"/><path transform="scale(2 2)" d="M182.655 285.306C170.397 286.409 159.566 277.364 158.466 265.106C157.366 252.847 166.414 242.019 178.672 240.922C190.927 239.825 201.75 248.869 202.85 261.123C203.95 273.377 194.909 284.203 182.655 285.306Z"/><path transform="scale(2 2)" d="M333.282 285.665C320.962 286.428 310.364 277.041 309.636 264.718C308.908 252.396 318.326 241.826 330.651 241.133C342.925 240.444 353.443 249.815 354.168 262.087C354.893 274.36 345.552 284.905 333.282 285.665Z"/></svg>